<svg width="30" height="30" viewBox="0 0 30 30" fill="none" xmlns="http://www.w3.org/2000/svg">
<path d="M2.5 6.25C1.8125 6.25 1.25 6.8125 1.25 7.5V26.25C1.25 27.625 2.375 28.75 3.75 28.75H22.5C23.1875 28.75 23.75 28.1875 23.75 27.5C23.75 26.8125 23.1875 26.25 22.5 26.25H5C4.3125 26.25 3.75 25.6875 3.75 25V7.5C3.75 6.8125 3.1875 6.25 2.5 6.25ZM26.25 1.25H8.75C7.375 1.25 6.25 2.375 6.25 3.75V21.25C6.25 22.625 7.375 23.75 8.75 23.75H26.25C27.625 23.75 28.75 22.625 28.75 21.25V3.75C28.75 2.375 27.625 1.25 26.25 1.25ZM25 21.25H10C9.3125 21.25 8.75 20.6875 8.75 20V5C8.75 4.3125 9.3125 3.75 10 3.75H25C25.6875 3.75 26.25 4.3125 26.25 5V20C26.25 20.6875 25.6875 21.25 25 21.25ZM16.25 18.75H18.75C20.125 18.75 21.25 17.6375 21.25 16.25V14.375C21.25 13.3375 20.4125 12.5 19.375 12.5C20.4125 12.5 21.25 11.6625 21.25 10.625V8.75C21.25 7.3625 20.125 6.25 18.75 6.25H16.25C14.875 6.25 13.75 7.3625 13.75 8.75V10.625C13.75 11.6625 14.5875 12.5 15.625 12.5C14.5875 12.5 13.75 13.3375 13.75 14.375V16.25C13.75 17.6375 14.875 18.75 16.25 18.75ZM16.25 8.75H18.75V11.25H16.25V8.75ZM16.25 13.75H18.75V16.25H16.25V13.75Z" fill="#685BC4"/>
</svg>
